# xmcd CD database file
#
# Track frame offsets:
#	150
#	9375
#	21675
#	34537
#	48112
#	62625
#	74850
#	88575
#	103050
#	123900
#	138600
#	149850
#
# Disc length: 2225 seconds
#
# Revision: 3
# Processed by: cddbd v1.5.1PL0 Copyright (c) Steve Scherf et al.
# Submitted via: CDex 1.51
#
DISCID=b408af0c
DTITLE=Paul Williams - Ain't God Good
DYEAR=1997
DGENRE=Bluegrass
TTITLE0=Heaven's Getting Brighter
TTITLE1=With The Church I'll Fly Away
TTITLE2=Jesus Had Rose From The Dead
TTITLE3=Ain't God Good
TTITLE4=Paul's Ministry
TTITLE5=I Wasn't There
TTITLE6=I Just Steal Away And Pray
TTITLE7=Church Will Be Home
TTITLE8=Two Coats
TTITLE9=I Don't Know What I'd Do
TTITLE10=Saved Through Jesus' Blood
TTITLE11=Jesus Called It Paradise
EXTD=YEAR: 1997
EXTT0=
EXTT1=
EXTT2=
EXTT3=
EXTT4=
EXTT5=
EXTT6=
EXTT7=
EXTT8=
EXTT9=
EXTT10=
EXTT11=
PLAYORDER=
